<?xml version="1.0" encoding="UTF-8"?>
<svg width="40" height="40" viewBox="0 0 40 40" fill="none" xmlns="http://www.w3.org/2000/svg">
  <rect width="40" height="40" rx="8" fill="white" fill-opacity="0.1"/>
  <path d="M12 14C12 12.8954 12.8954 12 14 12H26C27.1046 12 28 12.8954 28 14V19C28 20.1046 27.1046 21 26 21H14C12.8954 21 12 20.1046 12 19V14Z" fill="white"/>
  <path d="M12 25C12 23.8954 12.8954 23 14 23H20C21.1046 23 22 23.8954 22 25V26C22 27.1046 21.1046 28 20 28H14C12.8954 28 12 27.1046 12 26V25Z" fill="white"/>
</svg> 